<svg width="330" height="111" viewBox="0 0 330 111" fill="none" xmlns="http://www.w3.org/2000/svg">
<path d="M30.4 78.64C30.4 85.04 29.28 90.32 27.04 94.48C24.88 98.64 21.96 101.88 18.28 104.2C14.6 106.6 10.12 108.68 4.84 110.44L0.16 97.84C3.68 96.48 6.32 94.92 8.08 93.16C9.92 91.4 11.16 89.36 11.8 87.04C12.44 84.72 12.76 81.72 12.76 78.04V7.96H30.4V78.64ZM95.7344 73.36C95.7344 75.84 96.0944 77.68 96.8144 78.88C97.5344 80 98.7344 80.84 100.414 81.4L96.8144 92.68C93.0544 92.36 89.9744 91.48 87.5744 90.04C85.2544 88.6 83.4544 86.36 82.1744 83.32C78.0144 89.72 71.6544 92.92 63.0944 92.92C56.7744 92.92 51.7344 91.12 47.9744 87.52C44.2944 83.84 42.4544 79.08 42.4544 73.24C42.4544 66.28 44.9744 60.96 50.0144 57.28C55.0544 53.6 62.2944 51.76 71.7344 51.76H79.0544V48.64C79.0544 44.72 78.1744 42 76.4144 40.48C74.6544 38.96 71.7344 38.2 67.6544 38.2C63.1744 38.2 57.5744 39.32 50.8544 41.56L47.0144 30.16C54.9344 27.04 62.7744 25.48 70.5344 25.48C79.1744 25.48 85.5344 27.36 89.6144 31.12C93.6944 34.8 95.7344 40.32 95.7344 47.68V73.36ZM67.7744 80.68C72.5744 80.68 76.3344 78.32 79.0544 73.6V61.48H73.4144C64.2144 61.48 59.6144 64.92 59.6144 71.8C59.6144 74.6 60.2944 76.8 61.6544 78.4C63.0944 79.92 65.1344 80.68 67.7744 80.68Z" fill="#303750"/>
<path d="M173.359 7.96L149.479 91H127.999L103.279 7.96H122.119L139.039 76.36L155.359 7.96H173.359ZM224.641 73.36C224.641 75.84 225.001 77.68 225.721 78.88C226.441 80 227.641 80.84 229.321 81.4L225.721 92.68C221.961 92.36 218.881 91.48 216.481 90.04C214.161 88.6 212.361 86.36 211.081 83.32C206.921 89.72 200.561 92.92 192.001 92.92C185.681 92.92 180.641 91.12 176.881 87.52C173.201 83.84 171.361 79.08 171.361 73.24C171.361 66.28 173.881 60.96 178.921 57.28C183.961 53.6 191.201 51.76 200.641 51.76H207.961V48.64C207.961 44.72 207.081 42 205.321 40.48C203.561 38.96 200.641 38.2 196.561 38.2C192.081 38.2 186.481 39.32 179.761 41.56L175.921 30.16C183.841 27.04 191.681 25.48 199.441 25.48C208.081 25.48 214.441 27.36 218.521 31.12C222.601 34.8 224.641 40.32 224.641 47.68V73.36ZM196.681 80.68C201.481 80.68 205.241 78.32 207.961 73.6V61.48H202.321C193.121 61.48 188.521 64.92 188.521 71.8C188.521 74.6 189.201 76.8 190.561 78.4C192.001 79.92 194.041 80.68 196.681 80.68ZM256.334 92.92C251.134 92.92 247.094 91.44 244.214 88.48C241.334 85.44 239.894 81.16 239.894 75.64V2.07999L256.934 0.159997V75.16C256.934 77.96 258.094 79.36 260.414 79.36C261.694 79.36 262.814 79.12 263.774 78.64L267.254 90.76C263.974 92.2 260.334 92.92 256.334 92.92ZM329.176 57.76C329.176 58.56 329.056 60.76 328.816 64.36H289.096C289.656 70.12 291.216 74.2 293.776 76.6C296.336 79 299.816 80.2 304.216 80.2C306.936 80.2 309.496 79.76 311.896 78.88C314.296 78 316.896 76.6 319.696 74.68L326.776 84.28C319.656 90.04 311.616 92.92 302.656 92.92C292.656 92.92 284.976 89.92 279.616 83.92C274.256 77.92 271.576 69.8 271.576 59.56C271.576 53.08 272.696 47.28 274.936 42.16C277.256 36.96 280.576 32.88 284.896 29.92C289.296 26.96 294.496 25.48 300.496 25.48C309.536 25.48 316.576 28.32 321.616 34C326.656 39.68 329.176 47.6 329.176 57.76ZM312.256 52.96C312.256 42.4 308.456 37.12 300.856 37.12C297.336 37.12 294.576 38.44 292.576 41.08C290.656 43.64 289.496 47.84 289.096 53.68H312.256V52.96Z" fill="#008F83"/>
</svg>
